<?xml version="1.0" encoding="UTF-8"?>
<!DOCTYPE svg PUBLIC "-//W3C//DTD SVG 1.1//EN" "http://www.w3.org/Graphics/SVG/1.1/DTD/svg11.dtd">
<svg xmlns="http://www.w3.org/2000/svg" version="1.1" width="1076px" height="1069px" style="shape-rendering:geometricPrecision; text-rendering:geometricPrecision; image-rendering:optimizeQuality; fill-rule:evenodd; clip-rule:evenodd" xmlns:xlink="http://www.w3.org/1999/xlink">
<g><path style="opacity:1" fill="#fea821" d="M 155.5,146.5 C 294.167,146.5 432.833,146.5 571.5,146.5C 571.5,174.167 571.5,201.833 571.5,229.5C 460.833,229.5 350.167,229.5 239.5,229.5C 238.502,257.328 238.169,285.328 238.5,313.5C 294.336,313.832 350.002,313.499 405.5,312.5C 406.498,340.328 406.831,368.328 406.5,396.5C 350.833,396.5 295.167,396.5 239.5,396.5C 239.5,507.5 239.5,618.5 239.5,729.5C 211.5,729.5 183.5,729.5 155.5,729.5C 155.5,535.167 155.5,340.833 155.5,146.5 Z"/></g>
<g><path style="opacity:0.784" fill="#a36812" d="M 155.5,146.5 C 294.666,145.5 433.999,145.167 573.5,145.5C 574.158,173.853 573.492,201.853 571.5,229.5C 571.5,201.833 571.5,174.167 571.5,146.5C 432.833,146.5 294.167,146.5 155.5,146.5 Z"/></g>
<g><path style="opacity:0.78" fill="#ab7216" d="M 239.5,229.5 C 239.5,257.167 239.5,284.833 239.5,312.5C 294.833,312.5 350.167,312.5 405.5,312.5C 350.002,313.499 294.336,313.832 238.5,313.5C 238.169,285.328 238.502,257.328 239.5,229.5 Z"/></g>
<g><path style="opacity:0.995" fill="#fefefe" d="M 716.5,394.5 C 716.5,418.167 716.5,441.833 716.5,465.5C 621.332,465.167 526.332,465.501 431.5,466.5C 430.503,486.66 430.17,506.993 430.5,527.5C 502.833,527.5 575.167,527.5 647.5,527.5C 647.5,550.833 647.5,574.167 647.5,597.5C 646.957,597.56 646.624,597.893 646.5,598.5C 669.824,599.5 693.157,599.833 716.5,599.5C 716.5,673.833 716.5,748.167 716.5,822.5C 693.167,822.5 669.833,822.5 646.5,822.5C 646.5,846.167 646.5,869.833 646.5,893.5C 571.5,893.5 496.5,893.5 421.5,893.5C 421.827,869.925 421.494,846.425 420.5,823C 396.502,822.5 372.502,822.333 348.5,822.5C 348.5,795.833 348.5,769.167 348.5,742.5C 375.833,742.5 403.167,742.5 430.5,742.5C 430.5,766.167 430.5,789.833 430.5,813.5C 499.002,813.833 567.335,813.499 635.5,812.5C 635.5,744.5 635.5,676.5 635.5,608.5C 563.5,608.5 491.5,608.5 419.5,608.5C 419.5,585.833 419.5,563.167 419.5,540.5C 395.833,540.5 372.167,540.5 348.5,540.5C 348.5,512.5 348.5,484.5 348.5,456.5C 372.524,457.157 396.19,456.49 419.5,454.5C 419.5,434.5 419.5,414.5 419.5,394.5C 518.5,394.5 617.5,394.5 716.5,394.5 Z"/></g>
<g><path style="opacity:0.161" fill="#636363" d="M 717.5,394.5 C 718.496,394.414 719.329,394.748 720,395.5C 720.83,419.337 720.663,443.004 719.5,466.5C 718.833,466.5 718.167,466.5 717.5,466.5C 717.5,442.5 717.5,418.5 717.5,394.5 Z"/></g>
<g><path style="opacity:0.572" fill="#d7d7d7" d="M 419.5,454.5 C 396.19,456.49 372.524,457.157 348.5,456.5C 371.81,454.51 395.476,453.843 419.5,454.5 Z"/></g>
<g><path style="opacity:0.761" fill="#e1e1e1" d="M 716.5,394.5 C 716.833,394.5 717.167,394.5 717.5,394.5C 717.5,418.5 717.5,442.5 717.5,466.5C 622.5,466.5 527.5,466.5 432.5,466.5C 432.167,466.5 431.833,466.5 431.5,466.5C 526.332,465.501 621.332,465.167 716.5,465.5C 716.5,441.833 716.5,418.167 716.5,394.5 Z"/></g>
<g><path style="opacity:0.125" fill="#5d5d5d" d="M 432.5,466.5 C 527.5,466.5 622.5,466.5 717.5,466.5C 718.167,466.5 718.833,466.5 719.5,466.5C 624.506,468.498 529.173,469.164 433.5,468.5C 432.662,468.158 432.328,467.492 432.5,466.5 Z"/></g>
<g><path style="opacity:0.055" fill="#616161" d="M 431.5,466.5 C 431.833,466.5 432.167,466.5 432.5,466.5C 432.328,467.492 432.662,468.158 433.5,468.5C 433.5,487.5 433.5,506.5 433.5,525.5C 505.002,525.167 576.335,525.501 647.5,526.5C 575.5,526.5 503.5,526.5 431.5,526.5C 431.5,506.5 431.5,486.5 431.5,466.5 Z"/></g>
<g><path style="opacity:0.419" fill="#969696" d="M 431.5,466.5 C 431.5,486.5 431.5,506.5 431.5,526.5C 503.5,526.5 575.5,526.5 647.5,526.5C 648.498,549.994 648.831,573.661 648.5,597.5C 648.167,597.5 647.833,597.5 647.5,597.5C 647.5,574.167 647.5,550.833 647.5,527.5C 575.167,527.5 502.833,527.5 430.5,527.5C 430.17,506.993 430.503,486.66 431.5,466.5 Z"/></g>
<g><path style="opacity:0.765" fill="#c0c0c0" d="M 647.5,597.5 C 647.833,597.5 648.167,597.5 648.5,597.5C 671.5,597.5 694.5,597.5 717.5,597.5C 717.5,598.167 717.5,598.833 717.5,599.5C 717.167,599.5 716.833,599.5 716.5,599.5C 693.157,599.833 669.824,599.5 646.5,598.5C 646.624,597.893 646.957,597.56 647.5,597.5 Z"/></g>
<g><path style="opacity:0.161" fill="#636363" d="M 717.5,597.5 C 718.496,597.414 719.329,597.748 720,598.5C 720.667,673.5 720.667,748.5 720,823.5C 719.329,824.252 718.496,824.586 717.5,824.5C 717.5,749.5 717.5,674.5 717.5,599.5C 717.5,598.833 717.5,598.167 717.5,597.5 Z"/></g>
<g><path style="opacity:0.753" fill="#cacaca" d="M 419.5,609.5 C 419.5,609.167 419.5,608.833 419.5,608.5C 491.5,608.5 563.5,608.5 635.5,608.5C 635.5,676.5 635.5,744.5 635.5,812.5C 635.167,812.5 634.833,812.5 634.5,812.5C 634.5,744.833 634.5,677.167 634.5,609.5C 562.833,609.5 491.167,609.5 419.5,609.5 Z"/></g>
<g><path style="opacity:0.271" fill="#8b8b8b" d="M 419.5,609.5 C 491.167,609.5 562.833,609.5 634.5,609.5C 634.5,677.167 634.5,744.833 634.5,812.5C 634.167,812.5 633.833,812.5 633.5,812.5C 633.672,811.508 633.338,810.842 632.5,810.5C 632.5,744.167 632.5,677.833 632.5,611.5C 561.159,612.163 490.159,611.497 419.5,609.5 Z"/></g>
<g><path style="opacity:0.059" fill="#d7d7d7" d="M 431.5,739.5 C 431.169,764.006 431.502,788.339 432.5,812.5C 499.5,812.5 566.5,812.5 633.5,812.5C 633.833,812.5 634.167,812.5 634.5,812.5C 634.833,812.5 635.167,812.5 635.5,812.5C 567.335,813.499 499.002,813.833 430.5,813.5C 430.5,789.833 430.5,766.167 430.5,742.5C 403.167,742.5 375.833,742.5 348.5,742.5C 348.5,741.5 348.5,740.5 348.5,739.5C 376.167,739.5 403.833,739.5 431.5,739.5 Z"/></g>
<g><path style="opacity:0.384" fill="#818181" d="M 431.5,739.5 C 433.49,762.81 434.157,786.476 433.5,810.5C 432.662,810.842 432.328,811.508 432.5,812.5C 431.502,788.339 431.169,764.006 431.5,739.5 Z"/></g>
<g><path style="opacity:1" fill="#96d5e6" d="M 879.5,775.5 C 898.5,775.5 917.5,775.5 936.5,775.5C 936.5,780.167 936.5,784.833 936.5,789.5C 941.403,790.5 947.07,790.833 953.5,790.5C 953.5,803.167 953.5,815.833 953.5,828.5C 947.07,828.167 941.403,828.5 936.5,829.5C 936.5,834.167 936.5,838.833 936.5,843.5C 941.403,844.5 947.07,844.833 953.5,844.5C 953.5,857.167 953.5,869.833 953.5,882.5C 947.833,882.5 942.167,882.5 936.5,882.5C 936.5,888.167 936.5,893.833 936.5,899.5C 917.5,899.5 898.5,899.5 879.5,899.5C 879.822,893.642 879.489,887.975 878.5,882.5C 872.833,882.5 867.167,882.5 861.5,882.5C 861.5,875.5 861.5,868.5 861.5,861.5C 868.833,861.5 876.167,861.5 883.5,861.5C 883.5,867.167 883.5,872.833 883.5,878.5C 899.833,878.5 916.167,878.5 932.5,878.5C 932.5,868.167 932.5,857.833 932.5,847.5C 921.012,846.505 909.345,846.172 897.5,846.5C 897.5,839.833 897.5,833.167 897.5,826.5C 909.345,826.828 921.012,826.495 932.5,825.5C 932.5,814.833 932.5,804.167 932.5,793.5C 916.167,793.5 899.833,793.5 883.5,793.5C 881.55,798.735 880.883,804.402 881.5,810.5C 874.833,810.5 868.167,810.5 861.5,810.5C 861.5,803.833 861.5,797.167 861.5,790.5C 867.5,790.5 873.5,790.5 879.5,790.5C 879.5,785.5 879.5,780.5 879.5,775.5 Z"/></g>
<g><path style="opacity:0.129" fill="#222e31" d="M 879.5,775.5 C 879.5,780.5 879.5,785.5 879.5,790.5C 873.5,790.5 867.5,790.5 861.5,790.5C 866.975,789.511 872.642,789.178 878.5,789.5C 878.181,784.637 878.514,779.97 879.5,775.5 Z"/></g>
<g><path style="opacity:0.039" fill="#4b6e7e" d="M 936.5,789.5 C 942.5,789.5 948.5,789.5 954.5,789.5C 954.5,802.833 954.5,816.167 954.5,829.5C 948.5,829.5 942.5,829.5 936.5,829.5C 941.403,828.5 947.07,828.167 953.5,828.5C 953.5,815.833 953.5,803.167 953.5,790.5C 947.07,790.833 941.403,790.5 936.5,789.5 Z"/></g>
<g><path style="opacity:0.024" fill="#6f989e" d="M 883.5,793.5 C 883.5,799.5 883.5,805.5 883.5,811.5C 875.981,811.825 868.648,811.492 861.5,810.5C 868.167,810.5 874.833,810.5 881.5,810.5C 880.883,804.402 881.55,798.735 883.5,793.5 Z"/></g>
<g><path style="opacity:0.999" fill="#96d5e6" d="M 754.5,808.5 C 761.167,808.5 767.833,808.5 774.5,808.5C 773.847,826.532 774.514,844.198 776.5,861.5C 781.833,861.5 787.167,861.5 792.5,861.5C 792.5,867.5 792.5,873.5 792.5,879.5C 797.695,879.821 802.695,879.487 807.5,878.5C 807.5,872.833 807.5,867.167 807.5,861.5C 813.167,861.5 818.833,861.5 824.5,861.5C 825.497,844.008 825.83,826.341 825.5,808.5C 832.167,808.5 838.833,808.5 845.5,808.5C 845.5,827.167 845.5,845.833 845.5,864.5C 839.974,864.179 834.64,864.512 829.5,865.5C 829.5,871.167 829.5,876.833 829.5,882.5C 823.5,882.5 817.5,882.5 811.5,882.5C 811.5,888.5 811.5,894.5 811.5,900.5C 804.167,900.5 796.833,900.5 789.5,900.5C 789.5,894.5 789.5,888.5 789.5,882.5C 783.5,882.5 777.5,882.5 771.5,882.5C 771.5,876.833 771.5,871.167 771.5,865.5C 765.833,865.5 760.167,865.5 754.5,865.5C 754.5,846.5 754.5,827.5 754.5,808.5 Z"/></g>
<g><path style="opacity:0.231" fill="#1f2a2e" d="M 754.5,808.5 C 761.568,807.173 768.735,807.173 776,808.5C 776.5,826.164 776.667,843.83 776.5,861.5C 774.514,844.198 773.847,826.532 774.5,808.5C 767.833,808.5 761.167,808.5 754.5,808.5 Z"/></g>
<g><path style="opacity:0.392" fill="#425356" d="M 829.5,865.5 C 834.64,864.512 839.974,864.179 845.5,864.5C 845.5,845.833 845.5,827.167 845.5,808.5C 838.833,808.5 832.167,808.5 825.5,808.5C 825.83,826.341 825.497,844.008 824.5,861.5C 824.5,843.5 824.5,825.5 824.5,807.5C 832.167,807.5 839.833,807.5 847.5,807.5C 847.667,826.503 847.5,845.503 847,864.5C 841.259,865.475 835.425,865.808 829.5,865.5 Z"/></g>
<g><path style="opacity:0.243" fill="#3e3e3e" d="M 433.5,810.5 C 499.833,810.5 566.167,810.5 632.5,810.5C 633.338,810.842 633.672,811.508 633.5,812.5C 566.5,812.5 499.5,812.5 432.5,812.5C 432.328,811.508 432.662,810.842 433.5,810.5 Z"/></g>
<g><path style="opacity:0.596" fill="#3f575e" d="M 932.5,825.5 C 921.012,826.495 909.345,826.828 897.5,826.5C 897.5,833.167 897.5,839.833 897.5,846.5C 909.345,846.172 921.012,846.505 932.5,847.5C 920.5,847.5 908.5,847.5 896.5,847.5C 896.5,840.167 896.5,832.833 896.5,825.5C 908.5,825.5 920.5,825.5 932.5,825.5 Z"/></g>
<g><path style="opacity:0.039" fill="#6798ae" d="M 936.5,843.5 C 942.5,843.5 948.5,843.5 954.5,843.5C 954.829,856.677 954.495,869.677 953.5,882.5C 953.5,869.833 953.5,857.167 953.5,844.5C 947.07,844.833 941.403,844.5 936.5,843.5 Z"/></g>
<g><path style="opacity:0.086" fill="#243636" d="M 792.5,861.5 C 793.489,866.975 793.822,872.642 793.5,878.5C 798.167,878.5 802.833,878.5 807.5,878.5C 802.695,879.487 797.695,879.821 792.5,879.5C 792.5,873.5 792.5,867.5 792.5,861.5 Z"/></g>
<g><path style="opacity:0.834" fill="#e9e9e9" d="M 716.5,599.5 C 716.833,599.5 717.167,599.5 717.5,599.5C 717.5,674.5 717.5,749.5 717.5,824.5C 694.5,824.5 671.5,824.5 648.5,824.5C 647.502,847.661 647.169,870.994 647.5,894.5C 571.5,894.5 495.5,894.5 419.5,894.5C 419.5,871.167 419.5,847.833 419.5,824.5C 395.476,825.157 371.81,824.49 348.5,822.5C 372.502,822.333 396.502,822.5 420.5,823C 421.494,846.425 421.827,869.925 421.5,893.5C 496.5,893.5 571.5,893.5 646.5,893.5C 646.5,869.833 646.5,846.167 646.5,822.5C 669.833,822.5 693.167,822.5 716.5,822.5C 716.5,748.167 716.5,673.833 716.5,599.5 Z"/></g>
<g><path style="opacity:0.419" fill="#646464" d="M 648.5,824.5 C 648.828,848.408 648.494,872.241 647.5,896C 609.5,896.167 571.5,896.333 533.5,896.5C 495.161,896.5 457.161,895.833 419.5,894.5C 495.5,894.5 571.5,894.5 647.5,894.5C 647.169,870.994 647.502,847.661 648.5,824.5 Z"/></g>
<g><path style="opacity:0.506" fill="#486870" d="M 878.5,882.5 C 879.489,887.975 879.822,893.642 879.5,899.5C 898.5,899.5 917.5,899.5 936.5,899.5C 917.341,900.497 898.007,900.83 878.5,900.5C 878.5,894.5 878.5,888.5 878.5,882.5 Z"/></g>
</svg>
